<svg id="Layer_1" data-name="Layer 1" xmlns="http://www.w3.org/2000/svg" viewBox="0 0 465.28 68.5"><defs><style>.cls-1{fill:#60269e;}.cls-2{fill:#80bc00;}</style></defs><title>2019_sn_logo_v1</title><path class="cls-1" d="M90.28,50,93,46.36c2.87,2.31,5.78,3.91,9.74,3.91,4.33,0,6.48-2.31,6.48-5.12,0-3.4-3.89-4.9-7.54-6.26-4.62-1.68-9.84-4-9.84-9.53,0-5.28,4.23-9.36,11.38-9.36a16.7,16.7,0,0,1,10.26,3.71l-2.67,3.57c-2.27-1.68-4.61-2.93-7.53-2.93-4.15,0-6.07,2.21-6.07,4.73,0,3.14,3.59,4.33,7.32,5.72,4.76,1.8,10.06,3.73,10.06,10,0,5.35-4.25,9.81-12,9.81A19.82,19.82,0,0,1,90.28,50Z"/><path class="cls-1" d="M120.87,5.45h5.58V18.68l-.2,6.78c3.08-3,6.42-5.46,10.95-5.46,7,0,10.08,4.48,10.08,12.9V53.81h-5.59V33.62c0-6.14-1.86-8.77-6.22-8.77-3.38,0-5.71,1.72-9,5.06v23.9h-5.58Z"/><path class="cls-1" d="M154.23,45.24c0-7.19,6.21-10.78,20.27-12.31,0-4.24-1.42-8.33-6.81-8.33-3.82,0-7.26,1.8-9.84,3.53l-2.19-3.82a24.18,24.18,0,0,1,13-4.31c8,0,11.46,5.35,11.46,13.56V53.81h-4.61l-.47-4h-.19c-3.14,2.62-6.82,4.76-10.91,4.76C158.38,54.62,154.23,51.19,154.23,45.24Zm20.27.52V36.59c-11.06,1.33-14.8,4-14.8,8.26,0,3.75,2.55,5.27,5.79,5.27S171.3,48.57,174.5,45.76Z"/><path class="cls-1" d="M189,20.81h4.61l.47,6h.19c2.29-4.19,5.67-6.82,9.38-6.82a7.58,7.58,0,0,1,3.52.68l-1,4.9a9.19,9.19,0,0,0-3.2-.55c-2.79,0-6.12,2-8.35,7.59V53.81H189Z"/><path class="cls-1" d="M213.89,20.81h4.61l.47,3.81h.18c3-2.48,6.7-4.62,10.52-4.62,8.53,0,13.08,6.61,13.08,16.81,0,11.24-6.75,17.81-14.29,17.81-3,0-6.11-1.39-9.14-3.82l.15,5.76V67.73h-5.58ZM237,36.86c0-7.28-2.49-12.16-8.7-12.16-2.8,0-5.61,1.53-8.82,4.5V46.49c3,2.51,5.85,3.43,8,3.43C233,49.92,237,45,237,36.86Z"/><path class="cls-1" d="M248.87,20.13H257l.72,4.27H258c2.84-2.73,6.23-5.08,10.82-5.08,7.33,0,10.45,5.16,10.45,13.58V53.81h-10V34.18c0-4.85-1.3-6.36-4.18-6.36-2.51,0-4,1.16-6.23,3.27V53.81h-10Z"/><path class="cls-1" d="M284.23,37c0-11.19,7.88-17.66,16.4-17.66S317,25.79,317,37s-7.88,17.64-16.4,17.64S284.23,48.15,284.23,37Zm22.58,0c0-5.83-2.05-9.61-6.18-9.61s-6.18,3.78-6.18,9.61,2.05,9.59,6.18,9.59S306.81,42.81,306.81,37Z"/><path class="cls-1" d="M324.79,41.56V28h-4.6V20.51l5.16-.38,1.17-8.94h8.25v8.94h8.07V28h-8.07V41.44c0,3.82,1.73,5.35,4.36,5.35a9.94,9.94,0,0,0,3.2-.64l1.58,7.25a23.7,23.7,0,0,1-7.49,1.22C328.1,54.62,324.79,49.37,324.79,41.56Z"/><path class="cls-1" d="M350,10c0-3.06,2.43-5.22,5.77-5.22s5.78,2.16,5.78,5.22-2.43,5.22-5.78,5.22S350,13,350,10Zm.78,10.14h10V53.81h-10Z"/><path class="cls-1" d="M366.06,37c0-11.19,7.89-17.66,16.41-17.66s16.4,6.47,16.4,17.66S391,54.62,382.47,54.62,366.06,48.15,366.06,37Zm22.58,0c0-5.83-2.05-9.61-6.17-9.61s-6.18,3.78-6.18,9.61,2,9.59,6.18,9.59S388.64,42.81,388.64,37Z"/><path class="cls-1" d="M404.18,20.13h8.14L413,24.4h.25c2.83-2.73,6.22-5.08,10.82-5.08,7.32,0,10.44,5.16,10.44,13.58V53.81h-10V34.18c0-4.85-1.3-6.36-4.18-6.36-2.51,0-4,1.16-6.23,3.27V53.81h-10Z"/><path class="cls-1" d="M438.52,49.92,443,43.7c3.05,2.31,5.87,3.54,8.69,3.54,3,0,4.26-1.13,4.26-2.9,0-2.22-3.34-3.22-6.81-4.58-4.13-1.6-8.91-4.34-8.91-9.9,0-6.27,5.1-10.54,12.87-10.54A19.17,19.17,0,0,1,465,23.58l-4.47,6c-2.4-1.74-4.76-2.87-7.09-2.87-2.58,0-3.85,1-3.85,2.69,0,2.14,3.16,3,6.65,4.24,4.26,1.57,9.07,4,9.07,10.13s-4.81,10.86-13.84,10.86A21.78,21.78,0,0,1,438.52,49.92Z"/><path class="cls-1" d="M19,67.51a3.94,3.94,0,0,1-1.81-3.62c.32-2.3,2.12-10.35,2.56-17.12S20.2,39,20.2,39l2.94-.29A158.55,158.55,0,0,0,25.09,58Z"/><path class="cls-2" d="M19,67.51s2.89,2.29,5.52-.1,3.8-3.88,8.23-7.41a130.45,130.45,0,0,1,10.86-7.49l-1.13-2.38A162.55,162.55,0,0,1,25.09,58Z"/><path class="cls-1" d="M57.86,1a4,4,0,0,1,1.82,3.62c-.32,2.3-2.13,10.35-2.56,17.12s-.47,7.73-.47,7.73l-2.93.26a158.18,158.18,0,0,0-2-19.21Z"/><path class="cls-2" d="M57.86,1S55-1.3,52.34,1.09,48.55,5,44.11,8.5A130.45,130.45,0,0,1,33.25,16l1.13,2.38a162.55,162.55,0,0,1,17.37-7.86Z"/><path class="cls-1" d="M56.59,38.76l-1.5-.15-1.44-.14c0,6.4-1,15-1,15s-5.86-7.27-14.21-21.82C28.9,15,27.21,6.71,25.85,2.8S20.24.33,20.24.33a4.46,4.46,0,0,0-3.07,5.1,141.7,141.7,0,0,1,3.06,24l2.95.29A103.7,103.7,0,0,1,24,14.89c5,7.28,10.06,14.9,15.9,24.88A129.38,129.38,0,0,1,50.8,65.19a4.36,4.36,0,0,0,5.53,3.07s3.76-.94,3.34-4.37A217.57,217.57,0,0,1,56.59,38.76Z"/><path class="cls-2" d="M76.39,32.62a4.34,4.34,0,0,0-5-2.9,201.58,201.58,0,0,1-29,3.45l1.38,2.35A149.65,149.65,0,0,1,62.7,37.14l-3.46,2.65.44,4.2L73.92,38.4S77.87,37.18,76.39,32.62Z"/><path class="cls-2" d="M.33,35.83a4.34,4.34,0,0,0,5,2.9,197.22,197.22,0,0,1,28.78-3.44l-1.47-2.36A146.9,146.9,0,0,1,14,31.31l3.46-2.64L17,24.46,2.8,30.05S-1.15,31.27.33,35.83Z"/></svg>